<svg xmlns="http://www.w3.org/2000/svg" viewBox="0 0 141.272 71.97">
  <g data-name="Group 1" fill="#fff">
    <path data-name="Path 1" d="m30.471 68.661 7.522-7.522-23.459-22.694 23.459-22.184-7.522-7.267L0 39.082z" />
    <path data-name="Path 2" d="M54.312 52.215v4.59h11.474V16.772a15.36 15.36 0 0 1-3.57-4.845c-.892-2.422 0-4.576 2.04-7.14V3.13H53.675z" />
    <path data-name="Path 4" d="M68.209 56.8h13.73V19.378h-13.73z" />
    <path data-name="Path 5" d="M85.371 56.253h12.946l11.18-31.187-7.061-5.59h-4.119l-5.884 25.2-7.061-25.989z" />
    <path data-name="Path 6" d="m103.22 60.96 7.257 7.159 30.794-29.225-30.794-30.108-7.257 7.355 22.556 22.753z" />
    <path data-name="Exclusion 1" d="M74.91 18.788a10.278 10.278 0 0 1-7.039-2.768 9.055 9.055 0 0 1-2.914-6.628c0-5.179 4.486-9.392 10-9.392s10 4.213 10 9.392a9.055 9.055 0 0 1-2.913 6.627 10.27 10.27 0 0 1-6.731 2.76c3.725-.166 6.644-2.858 6.644-6.13 0-3.383-3.14-6.135-7-6.135s-7 2.752-7 6.135c0 3.361 3.119 6.114 6.953 6.136z" />
    <path data-name="Exclusion 2" d="M43.957 57a14.744 14.744 0 0 1-11.314-5.565A20.806 20.806 0 0 1 27.957 38a20.806 20.806 0 0 1 4.686-13.435A14.744 14.744 0 0 1 43.957 19a14.744 14.744 0 0 1 11.314 5.565A20.805 20.805 0 0 1 59.957 38a20.805 20.805 0 0 1-4.687 13.435A14.744 14.744 0 0 1 43.957 57zm2.794-29.23c-3.616 0-6.558 4.808-6.558 10.717S43.135 49.2 46.751 49.2s6.559-4.808 6.559-10.718-2.942-10.712-6.559-10.712z" />
    <path data-name="Path 7" d="M42.427 59.28a4.737 4.737 0 0 1 1.965.367 2.652 2.652 0 0 1 1.215 1.035 2.934 2.934 0 0 1 .4 1.553 3.171 3.171 0 0 1-.407 1.605 2.928 2.928 0 0 1-1.243 1.147 4.446 4.446 0 0 1-2.048.428h-1.742V69h-1.38v-9.72zm-.225 4.965a2.665 2.665 0 0 0 1.777-.51 1.8 1.8 0 0 0 .593-1.44 1.714 1.714 0 0 0-.548-1.372 2.432 2.432 0 0 0-1.627-.473h-1.83v3.8zm7.74-2a3.3 3.3 0 0 1 .465.03 4.471 4.471 0 0 1 .45.09l-.24 1.335a2.819 2.819 0 0 0-.93-.18 1.894 1.894 0 0 0-.885.21 2.193 2.193 0 0 0-.78.8V69h-1.29v-6.585l1.29-.135v.945a2.549 2.549 0 0 1 .87-.728 2.317 2.317 0 0 1 1.05-.247zm3.78 6.935a3.16 3.16 0 0 1-1.755-.458 2.779 2.779 0 0 1-1.05-1.245 4.387 4.387 0 0 1-.345-1.777 3.878 3.878 0 0 1 .45-1.972 2.69 2.69 0 0 1 1.215-1.128 4.113 4.113 0 0 1 1.74-.352 3.16 3.16 0 0 1 1.755.457 2.786 2.786 0 0 1 1.05 1.238 4.333 4.333 0 0 1 .345 1.77 3.912 3.912 0 0 1-.45 1.987 2.69 2.69 0 0 1-1.215 1.127 4.113 4.113 0 0 1-1.74.353zm.12-1.05q1.935 0 1.935-2.43a2.919 2.919 0 0 0-.472-1.747 1.636 1.636 0 0 0-1.418-.653 1.728 1.728 0 0 0-1.507.638 2.976 2.976 0 0 0-.458 1.762 2.947 2.947 0 0 0 .48 1.77 1.665 1.665 0 0 0 1.44.66zm7.485-5.88a2.547 2.547 0 0 1 1.545.45 2.637 2.637 0 0 1 .907 1.2 4.462 4.462 0 0 1 .293 1.635 4.1 4.1 0 0 1-.443 1.965 3.041 3.041 0 0 1-1.207 1.252 3.506 3.506 0 0 1-1.74.428 5.214 5.214 0 0 1-1.425-.2v2.8h-1.29v-9.35l1.29-.15v.585a5.318 5.318 0 0 1 1.073-.458 3.527 3.527 0 0 1 .997-.157zm-.75 5.91a2.107 2.107 0 0 0 1.087-.278 1.912 1.912 0 0 0 .75-.862 3.387 3.387 0 0 0 .277-1.455 2.567 2.567 0 0 0-.45-1.665 1.567 1.567 0 0 0-1.275-.54 3.333 3.333 0 0 0-1.71.495v4.08a4.354 4.354 0 0 0 1.321.225zm7.02-5.91a2.5 2.5 0 0 1 1.733.525 2.127 2.127 0 0 1 .577 1.65V69h-1.17l-.08-.57a3.959 3.959 0 0 1-2.38.75 2.315 2.315 0 0 1-1.02-.218 1.641 1.641 0 0 1-.7-.615 1.681 1.681 0 0 1-.247-.908 1.8 1.8 0 0 1 .585-1.373 3.551 3.551 0 0 1 1.56-.8 9.489 9.489 0 0 1 2.16-.285v-.33a1.47 1.47 0 0 0-.27-.982 1.167 1.167 0 0 0-.915-.308 4.165 4.165 0 0 0-2.28.78l-.57-.9a5.243 5.243 0 0 1 3.017-.991zm-1.905 5.05a.72.72 0 0 0 .233.585 1.065 1.065 0 0 0 .7.195 3.763 3.763 0 0 0 2-.6v-1.56a6.2 6.2 0 0 0-2.115.405q-.818.35-.818.975zm9.2.63a6.082 6.082 0 0 1 1.447.27 1.8 1.8 0 0 1 .847.555 1.453 1.453 0 0 1 .285.93 1.8 1.8 0 0 1-.447 1.215 2.792 2.792 0 0 1-1.267.795 6.187 6.187 0 0 1-1.965.278 4.947 4.947 0 0 1-2.325-.465 1.5 1.5 0 0 1-.87-1.4 1.546 1.546 0 0 1 .278-.945 2.9 2.9 0 0 1 .8-.705.952.952 0 0 1-.45-.81.971.971 0 0 1 .172-.555 2.217 2.217 0 0 1 .548-.525 2 2 0 0 1-.81-.8 2.343 2.343 0 0 1-.27-1.14 2.184 2.184 0 0 1 .412-1.365 2.306 2.306 0 0 1 1.088-.78 4.453 4.453 0 0 1 1.5-.24 5.291 5.291 0 0 1 .87.075l2.235-.93.45 1.05-1.53.435a2.064 2.064 0 0 1 .645.788 2.327 2.327 0 0 1 .21.982 1.961 1.961 0 0 1-.848 1.77 3.856 3.856 0 0 1-2.153.555 4.19 4.19 0 0 1-1-.105.669.669 0 0 0-.195.465.321.321 0 0 0 .12.263.9.9 0 0 0 .39.15q.27.053.765.1zm-1.085-4.72a1.733 1.733 0 0 0-1.25.39 1.365 1.365 0 0 0-.4 1.02 1.322 1.322 0 0 0 .4 1.02 1.833 1.833 0 0 0 1.275.375q1.62 0 1.62-1.35a1.37 1.37 0 0 0-.423-1.065 1.751 1.751 0 0 0-1.222-.39zm.015 7.755a4.5 4.5 0 0 0 1.628-.255.875.875 0 0 0 .653-.84.586.586 0 0 0-.18-.442 1.25 1.25 0 0 0-.555-.27 6.643 6.643 0 0 0-.991-.158l-1.065-.09a7.179 7.179 0 0 1-.885-.135 2.032 2.032 0 0 0-.442.548 1.238 1.238 0 0 0-.158.593.846.846 0 0 0 .48.788 3.3 3.3 0 0 0 1.515.261zm6.8-8.715a2.5 2.5 0 0 1 1.732.525 2.127 2.127 0 0 1 .578 1.65V69h-1.175l-.075-.57a3.959 3.959 0 0 1-2.385.75 2.315 2.315 0 0 1-1.02-.218 1.641 1.641 0 0 1-.7-.615 1.681 1.681 0 0 1-.247-.908 1.8 1.8 0 0 1 .585-1.373 3.551 3.551 0 0 1 1.56-.8 9.489 9.489 0 0 1 2.16-.285v-.33a1.47 1.47 0 0 0-.27-.982 1.167 1.167 0 0 0-.915-.308 4.165 4.165 0 0 0-2.28.78l-.57-.9a5.243 5.243 0 0 1 3.017-.991zm-1.91 5.05a.72.72 0 0 0 .232.585 1.065 1.065 0 0 0 .7.195 3.763 3.763 0 0 0 2-.6v-1.56a6.2 6.2 0 0 0-2.115.405q-.817.35-.817.975zm9.195-5.05q2.01 0 2.01 2.085V69h-1.29v-4.185a2.607 2.607 0 0 0-.112-.862.772.772 0 0 0-.375-.443 1.572 1.572 0 0 0-.712-.135 3.966 3.966 0 0 0-.96.128 5.309 5.309 0 0 0-.96.338V69h-1.291v-6.57l1.29-.15v.63a5.183 5.183 0 0 1 2.4-.66zm8.88-3.72V69h-1.17l-.06-.48a5.286 5.286 0 0 1-1.1.488 3.5 3.5 0 0 1-1.03.172 2.677 2.677 0 0 1-1.485-.4 2.5 2.5 0 0 1-.937-1.14 4.36 4.36 0 0 1-.322-1.748 4.1 4.1 0 0 1 .442-1.965 3.041 3.041 0 0 1 1.208-1.252 3.506 3.506 0 0 1 1.74-.428 5.918 5.918 0 0 1 1.425.2V58.68zm-4.73 7.335a2.567 2.567 0 0 0 .45 1.665 1.567 1.567 0 0 0 1.275.54 3.333 3.333 0 0 0 1.71-.5v-4.08a4.16 4.16 0 0 0-1.32-.225 2.107 2.107 0 0 0-1.088.278 1.912 1.912 0 0 0-.75.863 3.387 3.387 0 0 0-.277 1.459zm8.78-3.615a2.5 2.5 0 0 1 1.732.525 2.127 2.127 0 0 1 .577 1.65V69h-1.169l-.075-.57a3.959 3.959 0 0 1-2.385.75 2.315 2.315 0 0 1-1.02-.218 1.641 1.641 0 0 1-.7-.615 1.681 1.681 0 0 1-.247-.908 1.8 1.8 0 0 1 .585-1.373 3.551 3.551 0 0 1 1.56-.8 9.489 9.489 0 0 1 2.162-.286v-.33a1.47 1.47 0 0 0-.27-.982 1.167 1.167 0 0 0-.915-.308 4.165 4.165 0 0 0-2.28.78l-.57-.9a5.243 5.243 0 0 1 3.015-.99zm-1.905 5.05a.72.72 0 0 0 .232.585 1.065 1.065 0 0 0 .7.195 3.763 3.763 0 0 0 1.995-.6v-1.56a6.2 6.2 0 0 0-2.115.405q-.812.35-.812.975z" />
  </g>
</svg>