<svg width="117" height="35" viewBox="0 0 117 35" fill="none" xmlns="http://www.w3.org/2000/svg">
<path d="M50.1529 13.1197C49.8047 13.1188 49.4641 13.2207 49.174 13.4127C48.884 13.6046 48.6576 13.8779 48.5235 14.1981C48.3894 14.5182 48.3536 14.8708 48.4206 15.2112C48.4876 15.5516 48.6544 15.8646 48.9 16.1105C49.1455 16.3565 49.4587 16.5243 49.8 16.5929C50.1413 16.6615 50.4954 16.6278 50.8174 16.4959C51.1395 16.364 51.415 16.1399 51.6092 15.852C51.8035 15.5641 51.9076 15.2253 51.9086 14.8784C51.9092 14.6481 51.8643 14.4199 51.7764 14.2068C51.6885 13.9938 51.5593 13.8001 51.3963 13.6368C51.2333 13.4735 51.0396 13.3438 50.8262 13.255C50.6129 13.1663 50.3841 13.1203 50.1529 13.1197Z" fill="#460087"/>
<path d="M7.31905 19.6839L3.19921 14.1396C3.03515 13.9184 2.82147 13.7386 2.57523 13.6145C2.32899 13.4903 2.05702 13.4252 1.78104 13.4244H0.0380301L0 27.3975L3.39886 27.4069L3.41946 19.6445L6.21144 23.4002C6.3437 23.5616 6.51035 23.6918 6.69931 23.7811C6.88828 23.8705 7.09483 23.9168 7.30399 23.9168C7.51316 23.9168 7.71971 23.8705 7.90867 23.7811C8.09764 23.6918 8.26428 23.5616 8.39654 23.4002L11.1964 19.6618L11.1743 27.4243L14.5446 27.4338L14.5826 13.4591H12.8967C12.613 13.4583 12.333 13.5235 12.079 13.6496C11.8251 13.7757 11.6043 13.9591 11.4341 14.1853L7.31905 19.6839Z" fill="#460087"/>
<path d="M45.0391 23.1491C45.0391 22.2414 45.0645 13.5428 45.0645 13.5428L41.7591 13.5333C41.7591 13.5333 41.7322 23.1334 41.729 24.12C41.729 26.7028 43.3785 27.5032 44.5669 27.9231C44.8395 27.6595 46.8788 25.9087 46.8788 25.9087C45.749 25.4651 45.0312 24.7531 45.0391 23.1491Z" fill="#460087"/>
<path d="M59.8376 17.5842C57.7492 17.5842 57.0362 18.2741 56.5481 18.7524C56.4911 18.6135 56.4356 18.4841 56.3897 18.3688C56.3193 18.204 56.2019 18.0633 56.0521 17.9642C55.9022 17.8652 55.7265 17.8121 55.5467 17.8115H54.0509L54.0239 27.5458L57.3071 27.5537L57.3214 22.2051C57.3214 21.2294 57.9188 20.2096 59.2007 20.2127C60.4826 20.2159 61.1465 21.171 61.1433 22.3535L61.1291 27.5632L64.3251 27.5711L64.3394 21.9383C64.3441 19.3208 62.3539 17.5842 59.8376 17.5842Z" fill="#460087"/>
<path d="M26.744 24.9426C26.744 23.0055 26.744 20.6801 26.7599 18.7399C25.9834 18.372 24.326 17.4848 22.1282 17.4769C18.872 17.469 16.2733 19.2277 16.2654 22.6866C16.2654 25.6072 18.4695 27.6469 20.9858 27.6548C22.2249 27.6548 23.1772 27.4117 24.1248 26.4929C24.307 27.0991 24.8901 27.6453 25.9597 27.6942C26.0944 27.5569 27.755 26.2592 27.755 26.2592C27.4016 26.1298 26.7424 25.7146 26.744 24.9426ZM23.6399 23.3134C23.6399 24.48 22.4943 25.0499 21.6006 25.0768C20.7322 25.0973 19.3505 24.8431 19.3568 22.6929C19.3568 20.6517 20.7829 19.9665 22.1076 19.9697C22.5465 19.9697 23.4101 20.1607 23.6557 20.4054C23.6557 21.029 23.6399 22.865 23.6399 23.3134Z" fill="#460087"/>
<path d="M35.142 17.5037C33.1502 17.5037 32.3817 18.2536 31.8144 18.6483C31.759 18.5093 31.7019 18.3751 31.648 18.2536C31.5759 18.0933 31.4589 17.9572 31.3111 17.8614C31.1632 17.7657 30.9909 17.7144 30.8146 17.7137H29.2062L29.1682 31.6283L32.4752 31.6378L32.4863 27.1495C32.4863 27.1495 33.2009 27.6895 34.9075 27.6942C37.6535 27.6942 40.0509 25.8661 40.0604 22.6013C40.0699 19.4866 37.728 17.5116 35.142 17.5037ZM34.2324 25.2014C33.5241 25.2014 32.7746 24.9157 32.537 24.6694C32.537 24.0379 32.537 22.4687 32.537 22.0172C32.537 20.5506 33.8521 20.1228 34.7221 20.0991C35.592 20.0754 36.9167 20.5506 36.9103 22.7181C36.9087 24.7736 35.5238 25.2046 34.2324 25.2014Z" fill="#460087"/>
<path d="M51.7773 17.8064L48.491 17.7972L48.4637 27.5314L51.75 27.5406L51.7773 17.8064Z" fill="#460087"/>
<path d="M72.9655 27.5916L76.5418 27.601L73.6056 22.9013C73.7768 22.7655 73.9431 22.6313 74.1032 22.4782C74.7437 21.8878 75.2584 21.175 75.6164 20.3822C75.9744 19.5894 76.1684 18.7328 76.1869 17.8636H73.059C73.015 18.7965 72.6267 19.6802 71.9688 20.3454C71.3193 20.9589 70.466 21.313 69.5714 21.3399V21.1394L69.5825 16.8991L69.592 13.598V13.6248L66.6526 13.617H66.3056L66.2644 27.5726H66.6114L69.5508 27.5805V27.5395V24.8557V24.3331C69.9765 24.3292 70.4009 24.2853 70.8184 24.2021L72.9655 27.5916Z" fill="#460087"/>
<path d="M96.8955 29.9454C90.0439 23.9464 89.6525 18.9356 89.6303 18.2631C89.6303 18.2126 89.6303 18.0073 89.6303 18.0073L83.9529 17.9931V18.222C83.9529 21.6431 85.2601 26.9049 93.2621 34.2158C93.5393 34.4817 93.8683 34.6881 94.2287 34.8224C94.5892 34.9566 94.9734 35.0158 95.3577 34.9964C95.7419 34.977 96.1182 34.8792 96.4631 34.7093C96.808 34.5393 97.1143 34.3008 97.363 34.0083C97.6118 33.7158 97.7977 33.3756 97.9094 33.0088C98.0211 32.6419 98.0561 32.2561 98.0123 31.8752C97.9684 31.4944 97.8467 31.1265 97.6547 30.7943C97.4626 30.4621 97.2042 30.1727 96.8955 29.9439V29.9454Z" fill="#FF6700"/>
<path d="M83.9529 17.949V17.9963C83.9682 18.735 84.273 19.4383 84.802 19.9561C85.331 20.4738 86.0423 20.7648 86.7839 20.7669C87.5254 20.7689 88.2384 20.4819 88.7703 19.9671C89.3022 19.4523 89.6109 18.7507 89.6303 18.0121V17.9711C89.6445 16.4977 90.2409 15.0893 91.2904 14.0512C92.3398 13.013 93.7576 12.4288 95.2365 12.4251L95.2523 6.76862C92.2669 6.7619 89.4007 7.93521 87.2824 10.0312C85.1641 12.1271 83.9667 14.9746 83.9529 17.949Z" fill="#460087"/>
<path d="M95.482 6.76856C95.4059 6.76856 95.3235 6.75909 95.2522 6.75909C94.8789 6.75847 94.5092 6.83111 94.164 6.97287C93.8189 7.11462 93.5052 7.32272 93.2408 7.58527C92.9764 7.84782 92.7664 8.15969 92.623 8.50307C92.4796 8.84645 92.4054 9.21461 92.4048 9.58654C92.4042 9.95846 92.4771 10.3269 92.6194 10.6707C92.7616 11.0146 92.9705 11.3271 93.234 11.5906C93.4976 11.854 93.8106 12.0632 94.1552 12.2061C94.4999 12.349 94.8694 12.4228 95.2427 12.4235H95.2522C96.7323 12.4331 98.1481 13.0269 99.1895 14.0747C100.231 15.1226 100.813 16.539 100.808 18.0136C100.808 18.0136 100.808 18.0278 100.808 18.042L106.512 18.0578V18.0247C106.519 15.0831 105.368 12.256 103.305 10.1512C101.243 8.04639 98.4338 6.83182 95.482 6.76856Z" fill="#FF6700"/>
<path d="M115.669 14.5847L111.129 13.3612C110.679 13.2396 110.198 13.3013 109.793 13.5328C109.388 13.7643 109.092 14.1467 108.97 14.5957C108.848 15.0448 108.91 15.5238 109.142 15.9273C109.374 16.3308 109.758 16.6259 110.209 16.7475L114.752 17.9773C115.203 18.0985 115.685 18.036 116.09 17.8036C116.495 17.5712 116.791 17.1879 116.913 16.738C117.035 16.2881 116.972 15.8085 116.739 15.4047C116.505 15.0009 116.121 14.7059 115.669 14.5847Z" fill="#460087"/>
<path d="M115.607 6.43547C115.375 6.03205 114.991 5.73712 114.54 5.61546C114.089 5.4938 113.609 5.55536 113.203 5.78662L109.125 8.11205C108.924 8.22669 108.748 8.37958 108.607 8.56198C108.466 8.74438 108.362 8.95272 108.301 9.17511C108.241 9.39749 108.225 9.62957 108.254 9.85808C108.284 10.0866 108.358 10.3071 108.473 10.5069C108.589 10.7068 108.742 10.8821 108.925 11.0229C109.108 11.1636 109.317 11.2671 109.54 11.3273C109.764 11.3876 109.997 11.4035 110.226 11.374C110.455 11.3446 110.677 11.2704 110.877 11.1558L114.956 8.82404C115.359 8.59233 115.654 8.21109 115.776 7.76356C115.898 7.31603 115.837 6.83858 115.607 6.43547Z" fill="#460087"/>
<path d="M107.369 0.0607101C106.918 -0.0605481 106.438 0.00135427 106.033 0.232821C105.628 0.464288 105.332 0.846399 105.209 1.29525L103.977 5.82137C103.868 6.26615 103.938 6.73559 104.172 7.12962C104.406 7.52365 104.785 7.81111 105.228 7.93073C105.672 8.05035 106.145 7.99267 106.546 7.76998C106.947 7.54728 107.246 7.17719 107.377 6.7386L108.605 2.21563C108.666 1.99328 108.683 1.76108 108.654 1.53233C108.625 1.30358 108.551 1.08279 108.436 0.882598C108.321 0.68241 108.168 0.506766 107.985 0.36573C107.802 0.224694 107.593 0.121041 107.369 0.0607101Z" fill="#460087"/>
<path d="M114.072 7.29441C114.069 7.29743 114.068 7.30151 114.068 7.30574C114.068 7.30998 114.069 7.31405 114.072 7.31707C114.075 7.31937 114.077 7.32094 114.081 7.3216C114.084 7.32225 114.087 7.32195 114.09 7.32073C114.093 7.31951 114.095 7.31744 114.097 7.31477C114.099 7.3121 114.1 7.30896 114.1 7.30574C114.1 7.30253 114.099 7.29938 114.097 7.29671C114.095 7.29404 114.093 7.29197 114.09 7.29075C114.087 7.28954 114.084 7.28924 114.081 7.28989C114.077 7.29054 114.075 7.29211 114.072 7.29441Z" fill="#460087"/>
<path d="M106.512 18.0168C106.469 17.2951 106.151 16.6169 105.623 16.1203C105.096 15.6238 104.398 15.3462 103.673 15.3442C102.947 15.3422 102.248 15.6159 101.717 16.1095C101.187 16.6031 100.866 17.2795 100.818 18.001V18.0389C100.818 18.0389 100.818 18.2299 100.818 18.2505C100.818 18.7035 100.554 23.8169 93.4883 29.9328C93.1366 30.1851 92.8502 30.5171 92.6527 30.9014C92.4551 31.2857 92.3521 31.7112 92.3522 32.143C92.3486 32.513 92.4191 32.88 92.5597 33.2225C92.7003 33.565 92.9082 33.876 93.171 34.1375C93.4338 34.3989 93.7464 34.6054 94.0904 34.7449C94.4344 34.8844 94.8029 34.9541 95.1743 34.9499C95.8927 34.9538 96.5865 34.689 97.1185 34.2079C105.2 26.908 106.496 21.4726 106.505 18.0547C106.512 18.0405 106.512 18.0294 106.512 18.0168Z" fill="#460087"/>
</svg>
